<svg width="42" height="45" viewBox="0 0 42 45" fill="none" xmlns="http://www.w3.org/2000/svg">
<rect width="42" height="45" rx="5" fill="#BF8FFF"/>
<path d="M9.47757 35.2813L6.9138 6.52466H35.0862L32.5199 35.2769L20.9829 38.4754L9.47757 35.2813Z" fill="#121724"/>
<path d="M21.0003 36.0307L30.3228 33.446L32.5161 8.87573H21.0003V36.0307Z" fill="#374AA5" fill-opacity="0.58"/>
<path d="M21.0003 19.2943H25.6673L25.9896 15.6827H21.0003V12.1558H29.8442L29.7595 13.1021L28.8925 22.8212H21.0003V19.2943Z" fill="#BF8FFF"/>
<path d="M21.0212 28.4539L21.0056 28.4585L17.0778 27.3979L16.8267 24.585H13.2868L13.7807 30.1229L21.0051 32.1279L21.0212 32.1233V28.4539Z" fill="#BF8FFF"/>
<path d="M25.3674 22.672L24.9426 27.3951L21.0089 28.4569V32.1264L28.2392 30.1226L28.2922 29.5266L28.9058 22.672H25.3674Z" fill="#BF8FFF"/>
<path d="M21.0122 12.1558V15.6827H12.4932L12.4226 14.8902L12.2619 13.1021L12.1775 12.1558H21.0122ZM21.0002 19.2948V22.8217H17.122L17.0513 22.0292L16.8904 20.2411L16.8063 19.2948H21.0002Z" fill="#BF8FFF"/>
</svg>
