<svg width="45" height="45" viewBox="0 0 45 45" fill="none" xmlns="http://www.w3.org/2000/svg">
<rect width="45" height="45" rx="5" fill="#D6D916"/>
<path d="M38.1586 21.0505L23.949 6.84138C23.1312 6.02309 21.804 6.02309 20.9849 6.84138L18.0345 9.79231L21.7775 13.5352C22.6476 13.2416 23.6448 13.4385 24.3381 14.1318C25.0349 14.8294 25.2303 15.8352 24.9295 16.7081L28.5368 20.3157C29.4095 20.0148 30.4168 20.2092 31.1134 20.9074C32.0879 21.8811 32.0879 23.4597 31.1134 24.434C30.8818 24.6657 30.6068 24.8495 30.3042 24.9749C30.0015 25.1003 29.6771 25.1648 29.3495 25.1648C29.0219 25.1648 28.6976 25.1003 28.3949 24.9749C28.0923 24.8495 27.8173 24.6657 27.5857 24.434C27.2379 24.0858 27.0007 23.6425 26.9042 23.1598C26.8076 22.6772 26.8559 22.1768 27.043 21.7215L23.6791 18.3576L23.6786 27.2111C23.9227 27.3313 24.1455 27.4905 24.3383 27.6824C25.3123 28.6562 25.3123 30.2343 24.3383 31.2101C23.364 32.1838 21.7849 32.1838 20.8117 31.2101C19.8377 30.2345 19.8377 28.6564 20.8117 27.6824C21.0453 27.449 21.3228 27.2641 21.6282 27.1384V18.2029C21.3224 18.0778 21.0448 17.8928 20.8117 17.6587C20.0738 16.9213 19.8962 15.8385 20.2747 14.9321L16.5846 11.242L6.84135 20.9847C6.44827 21.3779 6.22745 21.9112 6.22745 22.4671C6.22745 23.0231 6.44827 23.5564 6.84135 23.9496L21.0512 38.1586C21.8695 38.9769 23.1962 38.9769 24.0158 38.1586L38.1589 24.0156C38.5519 23.6222 38.7726 23.089 38.7726 22.533C38.7725 21.9769 38.5517 21.4437 38.1586 21.0505Z" fill="#131528"/>
</svg>
