<svg width="45" height="45" viewBox="0 0 45 45" fill="none" xmlns="http://www.w3.org/2000/svg">
<rect width="45" height="45" rx="5" fill="#BF8FFF"/>
<path d="M10.8242 35.4512L8.2261 6.3125H36.7739L34.1723 35.4465L22.4827 38.6875L10.8242 35.4512Z" fill="#121624"/>
<path d="M22.5 36.2108L31.9466 33.5919L34.1689 8.69556H22.5V36.2108Z" fill="#28346F"/>
<path d="M22.5 19.5019H17.7709L17.4449 15.8423H22.5V12.2684H13.5391L13.6246 13.2281L14.5022 23.0758H22.5V19.5019ZM22.5 28.7831L22.4838 28.7877L18.504 27.7136L18.2496 24.8634H14.6618L15.1624 30.4735L22.4838 32.5062L22.5 32.5016V28.7831Z" fill="#BF8FFF"/>
<path d="M22.4873 19.5019V23.0758H26.888L26.474 27.7112L22.4873 28.7866V32.5051L29.8144 30.4735L29.8676 29.87L30.7071 20.4616L30.7949 19.5019H22.4873ZM22.4873 12.2684V15.8423H31.1198L31.1915 15.0399L31.3546 13.2281L31.4401 12.2684H22.4873Z" fill="#BF8FFF"/>
</svg>
