<svg width="45" height="45" viewBox="0 0 45 45" fill="none" xmlns="http://www.w3.org/2000/svg">
<rect width="45" height="45" rx="5" fill="#BF8FFF"/>
<path d="M11.336 37.1335L14.7796 35.0495C15.444 36.2274 16.0484 37.224 17.498 37.224C18.8876 37.224 19.7637 36.6805 19.7637 34.5662V20.1877H23.9926V34.626C23.9926 39.0059 21.4252 40.9996 17.6793 40.9996C14.2964 40.9996 12.3327 39.2476 11.3359 37.1332M26.2896 36.6804L29.7328 34.6868C30.6393 36.1671 31.8174 37.2545 33.9014 37.2545C35.6538 37.2545 36.7711 36.3784 36.7711 35.17C36.7711 33.7202 35.6232 33.2066 33.69 32.3611L32.633 31.9077C29.582 30.609 27.558 28.9778 27.558 25.5342C27.558 22.3624 29.9747 19.9458 33.7506 19.9458C36.439 19.9458 38.3722 20.8824 39.7616 23.3291L36.4691 25.4435C35.744 24.1447 34.9589 23.6312 33.7506 23.6312C32.5121 23.6312 31.7267 24.4166 31.7267 25.4435C31.7267 26.7121 32.5121 27.2258 34.3244 28.0113L35.3815 28.4643C38.9761 30.0051 41 31.5755 41 35.1096C41 38.9159 38.0096 41 33.9921 41C30.0654 41 27.528 39.1272 26.2896 36.6804Z" fill="#131528"/>
</svg>
