<svg width="45" height="45" viewBox="0 0 45 45" fill="none" xmlns="http://www.w3.org/2000/svg">
<rect width="45" height="45" rx="5" fill="#BF8FFF"/>
<path d="M22.5 25.7953C24.32 25.7953 25.7953 24.32 25.7953 22.5C25.7953 20.6801 24.32 19.2047 22.5 19.2047C20.6801 19.2047 19.2047 20.6801 19.2047 22.5C19.2047 24.32 20.6801 25.7953 22.5 25.7953Z" fill="#0E141B"/>
<path d="M35.0164 17.0656C34.3805 16.8344 33.7156 16.6032 33.0219 16.4008C33.1953 15.7071 33.3398 15.0133 33.4555 14.3485C34.0625 10.5328 33.3977 7.84456 31.5477 6.80393C30.9984 6.48596 30.3914 6.34143 29.6977 6.34143C27.6742 6.34143 25.1016 7.84456 22.5 10.3594C19.8984 7.84456 17.3258 6.34143 15.3023 6.34143C14.6086 6.34143 14.0016 6.48596 13.4524 6.80393C11.6024 7.87346 10.9375 10.5617 11.5445 14.3485C11.6602 15.0133 11.8047 15.7071 11.9781 16.4008C11.2844 16.6032 10.6195 16.8055 9.9836 17.0656C6.37032 18.4531 4.40469 20.361 4.40469 22.5C4.40469 24.6391 6.39923 26.5469 9.9836 27.9344C10.6195 28.1657 11.2844 28.3969 11.9781 28.5992C11.8047 29.293 11.6602 29.9867 11.5445 30.6516C10.9375 34.4672 11.6024 37.1555 13.4524 38.1961C14.0016 38.5141 14.6086 38.6586 15.3023 38.6586C17.3547 38.6586 19.9273 37.1555 22.5 34.6406C25.1016 37.1555 27.6742 38.6586 29.6977 38.6586C30.3914 38.6586 30.9984 38.5141 31.5477 38.1961C33.3977 37.1266 34.0625 34.4383 33.4555 30.6516C33.3398 29.9867 33.1953 29.293 33.0219 28.5992C33.7156 28.3969 34.3805 28.1946 35.0164 27.9344C38.6297 26.5469 40.5953 24.6391 40.5953 22.5C40.5953 20.361 38.6297 18.4531 35.0164 17.0656ZM30.7383 8.24924C31.9234 8.94299 32.3281 11.0821 31.8367 14.1172C31.75 14.7242 31.6055 15.3602 31.432 16.025C29.9289 15.6781 28.3391 15.4469 26.6625 15.3024C25.6797 13.9149 24.668 12.6719 23.6563 11.5446C25.7953 9.4344 27.9633 7.98909 29.7266 7.98909C30.1024 7.98909 30.4492 8.07581 30.7383 8.24924ZM27.5008 25.3906C26.9805 26.3156 26.3734 27.2407 25.7375 28.1656C24.668 28.2524 23.5984 28.2813 22.5 28.2813C21.3727 28.2813 20.3031 28.2524 19.2625 28.1656C18.6266 27.2407 18.0484 26.3156 17.5281 25.3906C16.9789 24.4367 16.4586 23.4539 15.9961 22.5C16.4586 21.5461 16.9789 20.5633 17.5281 19.6094C18.0484 18.6844 18.6555 17.7594 19.2914 16.8344C20.3609 16.7477 21.4305 16.7188 22.5289 16.7188C23.6563 16.7188 24.7258 16.7477 25.7664 16.8344C26.4023 17.7594 26.9805 18.6844 27.5008 19.6094C28.05 20.5633 28.5703 21.5461 29.0328 22.5C28.5414 23.4539 28.05 24.4078 27.5008 25.3906ZM29.9 24.4367C30.3336 25.4485 30.6805 26.4313 30.9984 27.4141C30.0156 27.6453 28.975 27.8188 27.8766 27.9633C28.2234 27.4141 28.5992 26.836 28.9172 26.2289C29.2641 25.6219 29.582 25.0149 29.9 24.4367ZM22.5 32.2703C21.8063 31.5188 21.1414 30.7094 20.5055 29.8711C21.1703 29.9 21.8352 29.9289 22.5 29.9289C23.1649 29.9289 23.8297 29.9 24.4945 29.8711C23.8586 30.7094 23.1938 31.5188 22.5 32.2703ZM17.1234 27.9344C16.025 27.7899 14.9844 27.6164 14.0016 27.3852C14.3195 26.4313 14.6664 25.4196 15.1 24.4078C15.418 24.986 15.7359 25.593 16.0828 26.1711C16.4297 26.8071 16.7766 27.3563 17.1234 27.9344ZM15.1 20.5633C14.6664 19.5516 14.3195 18.5688 14.0016 17.586C14.9844 17.3547 16.025 17.1813 17.1234 17.0367C16.7766 17.586 16.4008 18.1641 16.0828 18.7711C15.7359 19.3781 15.418 19.9852 15.1 20.5633ZM22.5 12.7297C23.1938 13.4813 23.8586 14.2906 24.4945 15.1289C23.8297 15.1 23.1649 15.0711 22.5 15.0711C21.8352 15.0711 21.1703 15.1 20.5055 15.1289C21.1414 14.2906 21.8063 13.4813 22.5 12.7297ZM28.9172 18.8L27.8766 17.0656C28.975 17.2102 30.0156 17.3836 30.9984 17.6149C30.6805 18.5688 30.3336 19.5805 29.9 20.5922C29.582 19.9852 29.2641 19.3781 28.9172 18.8ZM13.1633 14.1172C12.6719 11.0821 13.0766 8.94299 14.2617 8.24924C14.5508 8.07581 14.8977 7.98909 15.2734 7.98909C17.0078 7.98909 19.1758 9.40549 21.3438 11.5446C20.332 12.643 19.3203 13.9149 18.3375 15.3024C16.6609 15.4469 15.0711 15.7071 13.568 16.025C13.3945 15.3602 13.2789 14.7242 13.1633 14.1172ZM6.02344 22.5C6.02344 21.1414 7.6711 19.6961 10.5617 18.6266C11.1399 18.3953 11.7758 18.193 12.4117 18.0196C12.8742 19.4649 13.4523 20.9969 14.1461 22.5289C13.4523 24.061 12.8453 25.5641 12.4117 27.0094C8.42266 25.8531 6.02344 24.1188 6.02344 22.5ZM14.2617 36.7508C13.0766 36.0571 12.6719 33.918 13.1633 30.8828C13.25 30.2758 13.3945 29.6399 13.568 28.975C15.0711 29.3219 16.6609 29.5532 18.3375 29.6977C19.3203 31.0852 20.332 32.3281 21.3438 33.4555C19.2047 35.5657 17.0367 37.011 15.2734 37.011C14.8977 37.011 14.5508 36.9242 14.2617 36.7508ZM31.8367 30.8828C32.3281 33.918 31.9234 36.0571 30.7383 36.7508C30.4492 36.9242 30.1024 37.011 29.7266 37.011C27.9922 37.011 25.8242 35.5946 23.6563 33.4555C24.668 32.3571 25.6797 31.0852 26.6625 29.6977C28.3391 29.5532 29.9289 29.293 31.432 28.975C31.6055 29.6399 31.7211 30.2758 31.8367 30.8828ZM34.4383 26.3735C33.8602 26.6047 33.2242 26.8071 32.5883 26.9805C32.1258 25.5352 31.5477 24.0032 30.8539 22.4711C31.5477 20.9391 32.1547 19.436 32.5883 17.9907C36.5774 19.1469 38.9766 20.8813 38.9766 22.5C38.9766 23.8586 37.3 25.3039 34.4383 26.3735Z" fill="#0E141B"/>
</svg>
