<svg width="45" height="45" viewBox="0 0 45 45" fill="none" xmlns="http://www.w3.org/2000/svg">
<rect width="45" height="45" rx="5" fill="#BF8FFF"/>
<path d="M9.01445 22.0942L9 23.9557H14.9438V40.7667H19.1482V23.9557H25.092V22.1303C25.092 21.1201 25.0704 20.276 25.0414 20.2544C25.0196 20.2256 21.4025 20.211 17.017 20.2183L9.03621 20.24L9.01445 22.0942ZM35.7645 20.1871C36.9242 20.4758 37.8086 20.988 38.6205 21.8249C39.0409 22.2723 39.6642 23.0877 39.715 23.2824C39.7295 23.3401 37.7433 24.6677 36.5401 25.4108C36.4966 25.4398 36.3225 25.2521 36.1268 24.9635C35.5397 24.1122 34.9236 23.7441 33.9812 23.6793C32.5967 23.5853 31.7052 24.3069 31.7125 25.5118C31.7125 25.8654 31.7631 26.0745 31.9082 26.3632C32.2125 26.9909 32.778 27.3661 34.554 28.1308C37.8231 29.5307 39.222 30.4542 40.092 31.7672C41.0633 33.2319 41.2807 35.5696 40.6211 37.3084C39.8963 39.1987 38.0985 40.483 35.5686 40.9087C34.7859 41.0458 32.9301 41.0242 32.0894 40.8727C30.2554 40.5479 28.5158 39.6461 27.443 38.4629C27.0225 38.0011 26.2034 36.7962 26.2542 36.7095C26.2758 36.6807 26.4644 36.5653 26.6745 36.4426C26.8775 36.3272 27.646 35.8871 28.3708 35.4686L29.6828 34.7109L29.9582 35.115C30.3425 35.6994 31.1832 36.5003 31.6907 36.7672C33.1476 37.5321 35.1484 37.4238 36.1341 36.5437C36.5546 36.1612 36.7285 35.7644 36.7285 35.18C36.7285 34.6532 36.6632 34.4224 36.3878 34.0256C36.0326 33.5206 35.3078 33.0948 33.2491 32.2074C30.8933 31.1972 29.8785 30.5696 28.9507 29.5738C28.4143 28.9968 27.9068 28.0731 27.6966 27.3011C27.5227 26.659 27.4792 25.05 27.6169 24.4007C28.1025 22.1352 29.8205 20.5551 32.2995 20.086C33.1042 19.9346 34.9743 19.9923 35.7645 20.1871Z" fill="#131528"/>
</svg>
