<svg width="13" height="12" viewBox="0 0 13 12" fill="none" xmlns="http://www.w3.org/2000/svg">
<path d="M13 6L11.5582 4.40571L11.7591 2.29714L9.62591 1.82857L8.50909 0L6.5 0.834286L4.49091 0L3.37409 1.82286L1.24091 2.28571L1.44182 4.4L0 6L1.44182 7.59429L1.24091 9.70857L3.37409 10.1771L4.49091 12L6.5 11.16L8.50909 11.9943L9.62591 10.1714L11.7591 9.70286L11.5582 7.59429L13 6ZM4.95182 8.29143L3.54545 6.92C3.49068 6.86714 3.44722 6.80434 3.41756 6.73521C3.38791 6.66609 3.37265 6.59198 3.37265 6.51714C3.37265 6.4423 3.38791 6.3682 3.41756 6.29907C3.44722 6.22994 3.49068 6.16715 3.54545 6.11429L3.58682 6.07429C3.81727 5.85143 4.19545 5.85143 4.42591 6.07429L5.37727 7L8.42045 4.05143C8.65091 3.82857 9.02909 3.82857 9.25955 4.05143L9.30091 4.09143C9.53136 4.31429 9.53136 4.67429 9.30091 4.89714L5.80273 8.29143C5.56045 8.51429 5.18818 8.51429 4.95182 8.29143V8.29143Z" fill="#53F3C3"/>
</svg>
