<svg width="13" height="13" viewBox="0 0 13 13" fill="none" xmlns="http://www.w3.org/2000/svg">
<path d="M7.4795 6.50026L12.542 1.43776C12.6558 1.30491 12.7152 1.13403 12.7085 0.959253C12.7017 0.784478 12.6293 0.618688 12.5056 0.495011C12.3819 0.371334 12.2161 0.298881 12.0413 0.29213C11.8666 0.285379 11.6957 0.344828 11.5628 0.458596L6.50033 5.5211L1.43783 0.451652C1.30499 0.337883 1.1341 0.278435 0.959325 0.285186C0.78455 0.291937 0.618759 0.364389 0.495082 0.488066C0.371406 0.611743 0.298952 0.777534 0.292201 0.952309C0.285451 1.12708 0.344899 1.29797 0.458668 1.43082L5.52117 6.50026L0.451723 11.5628C0.379028 11.625 0.319986 11.7016 0.278303 11.7878C0.23662 11.8739 0.213196 11.9678 0.209502 12.0634C0.205808 12.1591 0.221923 12.2544 0.256836 12.3435C0.291749 12.4327 0.344706 12.5136 0.412383 12.5813C0.48006 12.6489 0.560995 12.7019 0.65011 12.7368C0.739225 12.7717 0.834594 12.7878 0.930233 12.7841C1.02587 12.7805 1.11971 12.757 1.20587 12.7153C1.29203 12.6737 1.36863 12.6146 1.43089 12.5419L6.50033 7.47943L11.5628 12.5419C11.6957 12.6557 11.8666 12.7151 12.0413 12.7084C12.2161 12.7016 12.3819 12.6292 12.5056 12.5055C12.6293 12.3818 12.7017 12.216 12.7085 12.0413C12.7152 11.8665 12.6558 11.6956 12.542 11.5628L7.4795 6.50026Z" fill="white"/>
</svg>
