<svg width="19" height="19" viewBox="0 0 19 19" fill="none" xmlns="http://www.w3.org/2000/svg">
<path d="M9.39193 5.25C7.11693 5.25 5.30859 7.05833 5.30859 9.33333C5.30859 11.6083 7.11693 13.4167 9.39193 13.4167C11.6669 13.4167 13.4753 11.6083 13.4753 9.33333C13.4753 7.05833 11.6669 5.25 9.39193 5.25ZM9.39193 12.25C7.75859 12.25 6.47526 10.9667 6.47526 9.33333C6.47526 7.7 7.75859 6.41667 9.39193 6.41667C11.0253 6.41667 12.3086 7.7 12.3086 9.33333C12.3086 10.9667 11.0253 12.25 9.39193 12.25Z" fill="white"/>
<path d="M17.9667 7.40833L16.3333 6.88333L15.9833 6.00833L16.8 4.49167C16.975 4.14167 16.9167 3.675 16.625 3.38333L15.225 1.98333C14.9333 1.69167 14.4667 1.63333 14.1167 1.80833L12.6 2.625L11.725 2.275L11.2 0.641667C11.0833 0.291667 10.7333 0 10.325 0H8.34167C7.93333 0 7.58333 0.291667 7.525 0.7L7 2.33333C6.65 2.39167 6.35833 2.50833 6.06667 2.68333L4.55 1.86667C4.2 1.69167 3.73333 1.75 3.44167 2.04167L2.04167 3.44167C1.75 3.73333 1.69167 4.2 1.86667 4.55L2.625 6.00833C2.50833 6.3 2.39167 6.65 2.275 6.94167L0.641667 7.46667C0.291667 7.58333 0 7.93333 0 8.34167V10.325C0 10.7333 0.291667 11.0833 0.7 11.2L2.33333 11.725L2.68333 12.6L1.86667 14.1167C1.69167 14.4667 1.75 14.9333 2.04167 15.225L3.44167 16.625C3.73333 16.9167 4.2 16.975 4.55 16.8L6.06667 15.9833L6.94167 16.3333L7.46667 18.025C7.58333 18.375 7.93333 18.6667 8.34167 18.6667H10.325C10.7333 18.6667 11.0833 18.375 11.2 18.025L11.725 16.3333L12.6 15.9833L14.1167 16.8C14.4667 16.975 14.9333 16.9167 15.225 16.625L16.625 15.225C16.9167 14.9333 16.975 14.4667 16.8 14.1167L15.9833 12.6L16.3333 11.725L18.025 11.2C18.375 11.0833 18.6667 10.7333 18.6667 10.325V8.34167C18.6667 7.93333 18.375 7.525 17.9667 7.40833ZM17.5 10.15L15.4 10.7917L15.3417 11.0833L14.8167 12.3083L14.6417 12.6L15.6917 14.525L14.525 15.6917L12.6 14.6417L12.3083 14.8167C11.9 15.05 11.4917 15.225 11.0833 15.3417L10.7917 15.4L10.15 17.5H8.51667L7.875 15.4L7.58333 15.3417L6.35833 14.8167L6.06667 14.6417L4.14167 15.6917L2.975 14.525L4.025 12.6L3.85 12.3083C3.61667 11.9 3.44167 11.4917 3.325 11.0833L3.26667 10.7917L1.16667 10.15V8.51667L3.15 7.93333L3.26667 7.64167C3.38333 7.175 3.55833 6.76667 3.79167 6.35833L3.96667 6.06667L2.975 4.14167L4.14167 2.975L6.00833 4.025L6.3 3.85C6.70833 3.61667 7.11667 3.44167 7.58333 3.325L7.875 3.20833L8.51667 1.16667H10.15L10.7917 3.20833L11.0833 3.325C11.4917 3.44167 11.9 3.61667 12.3083 3.85L12.6 4.025L14.525 2.975L15.6917 4.14167L14.6417 6.06667L14.8167 6.35833C15.05 6.76667 15.225 7.175 15.3417 7.58333L15.4 7.875L17.5 8.51667V10.15Z" fill="white"/>
</svg>
