<svg width="31" height="32" viewBox="0 0 31 32" fill="none" xmlns="http://www.w3.org/2000/svg">
<path d="M15.5 0.5C6.9375 0.5 0 7.4375 0 16C0 24.5625 6.9375 31.5 15.5 31.5C24.0625 31.5 31 24.5625 31 16C31 7.4375 24.0625 0.5 15.5 0.5ZM15.5 6.5C18.5375 6.5 21 8.9625 21 12C21 15.0375 18.5375 17.5 15.5 17.5C12.4625 17.5 10 15.0375 10 12C10 8.9625 12.4625 6.5 15.5 6.5ZM15.5 28C11.8313 28 8.54375 26.3375 6.34375 23.7375C7.51875 21.525 9.81875 20 12.5 20C12.65 20 12.8 20.025 12.9438 20.0688C13.7563 20.3313 14.6062 20.5 15.5 20.5C16.3937 20.5 17.25 20.3313 18.0562 20.0688C18.2 20.025 18.35 20 18.5 20C21.1812 20 23.4813 21.525 24.6562 23.7375C22.4562 26.3375 19.1688 28 15.5 28Z" fill="#2D687D"/>
</svg>
