<svg width="21" height="21" viewBox="0 0 21 21" fill="none" xmlns="http://www.w3.org/2000/svg">
<path d="M5.15625 19.25V1.375C2.0625 3.1625 0 6.49687 0 10.3125C0 14.1281 2.0625 17.4625 5.15625 19.25Z" fill="#137A08"/>
<path d="M10.3125 0C8.42188 0 6.66875 0.515625 5.15625 1.375V19.25C6.66875 20.1437 8.42188 20.625 10.3125 20.625C16.0188 20.625 20.625 16.0188 20.625 10.3125C20.625 4.60625 16.0188 0 10.3125 0Z" fill="#EC1C24"/>
<path d="M5.15625 6.1875C2.8875 6.1875 1.03125 8.04375 1.03125 10.3125C1.03125 12.5812 2.8875 14.4375 5.15625 14.4375C7.425 14.4375 9.28125 12.5812 9.28125 10.3125C9.28125 8.04375 7.425 6.1875 5.15625 6.1875ZM5.15625 13.9219C3.1625 13.9219 1.54688 12.3063 1.54688 10.3125C1.54688 8.31875 3.1625 6.70312 5.15625 6.70312C7.15 6.70312 8.76562 8.31875 8.76562 10.3125C8.76562 12.3063 7.15 13.9219 5.15625 13.9219Z" fill="#FEFE01"/>
<path d="M6.56602 14.334C6.49727 14.4027 6.39414 14.4027 6.32539 14.334L1.61602 8.11211C1.54727 8.04336 1.54727 7.94023 1.61602 7.87148L1.71914 7.76836C1.78789 7.69961 1.89102 7.69961 1.95977 7.76836L6.66914 13.9902C6.73789 14.059 6.73789 14.1621 6.66914 14.2309L6.56602 14.334" fill="#FEFE01"/>
<path d="M5.22461 6.01562C5.32773 6.01562 5.39648 6.08437 5.39648 6.1875V14.4375C5.39648 14.5406 5.32773 14.6094 5.22461 14.6094H5.05273C4.94961 14.6094 4.88086 14.5406 4.88086 14.4375V6.1875C4.88086 6.08437 4.94961 6.01562 5.05273 6.01562H5.22461Z" fill="#FEFE01"/>
<path d="M9.24687 10.759L5.15625 10.0371V10.5527L9.17813 11.2746C9.28125 11.2746 9.35 11.2402 9.38437 11.1371L9.41875 10.9652C9.41875 10.8965 9.35 10.7934 9.24687 10.759" fill="#FEFE01"/>
<path d="M5.15544 10.0035L1.92419 7.73474C1.85544 7.66599 1.75232 7.70037 1.68357 7.76912L1.58044 7.90662C1.51169 7.97537 1.54607 8.07849 1.61482 8.14724L5.15544 10.6222V10.0035" fill="#FEFE01"/>
<path d="M5.01914 9.625L1.78789 12.8562C1.71914 12.925 1.71914 13.0281 1.78789 13.0969L1.92539 13.2344C1.99414 13.3031 2.09727 13.3031 2.16602 13.2344L5.01914 10.3813V9.625Z" fill="#FEFE01"/>
<path d="M5.15582 8.07812L0.858946 10.1062C0.790196 10.1406 0.721446 10.2437 0.790196 10.3469L0.858946 10.5187C0.893321 10.5875 0.996446 10.6562 1.09957 10.5875L5.15582 8.6625V8.07812Z" fill="#FEFE01"/>
<path d="M8.97148 8.6623L4.88086 7.94043V8.45605L8.90273 9.17793C9.00586 9.17793 9.07461 9.14355 9.10898 9.04043L9.14336 8.86855C9.10898 8.76543 9.04023 8.6623 8.97148 8.6623" fill="#FEFE01"/>
<path d="M5.12066 12.6848C5.05191 12.7191 4.98316 12.8223 5.05191 12.9254L5.12066 13.0973C5.15504 13.166 5.25816 13.2348 5.36129 13.166L8.79879 11.5848L8.97067 10.9316L5.12066 12.6848" fill="#FEFE01"/>
<path d="M5.12148 11.5158L1.27148 10.1064V10.6564L5.12148 12.0658V11.5158Z" fill="#FEFE01"/>
<path d="M2.43945 12.6504V13.166L7.52695 13.5098C7.7332 13.3723 7.90508 13.2004 8.07695 13.0285L2.43945 12.6504Z" fill="#FEFE01"/>
<path d="M3.4375 8.59375V11C3.4375 11.9625 4.19375 12.7188 5.15625 12.7188C6.11875 12.7188 6.875 11.9625 6.875 11V8.59375H3.4375Z" fill="white"/>
<path d="M5.15625 13.4062C3.81562 13.4062 2.75 12.3406 2.75 11V7.90625H7.5625V11C7.5625 12.3406 6.49688 13.4062 5.15625 13.4062ZM4.125 9.28125V11C4.125 11.5844 4.57187 12.0312 5.15625 12.0312C5.74063 12.0312 6.1875 11.5844 6.1875 11V9.28125H4.125Z" fill="#EC1C24"/>
<path d="M4.84766 9.41914V9.96914C4.84766 10.0723 4.91641 10.141 5.01953 10.141H5.29453C5.39766 10.141 5.46641 10.0723 5.46641 9.96914V9.38477H4.84766V9.41914Z" fill="#1E4BA5"/>
<path d="M4.84766 10.2783V10.8627C4.84766 10.9658 4.91641 11.0346 5.01953 11.0346H5.29453C5.39766 11.0346 5.46641 10.9658 5.46641 10.8627V10.2783H4.84766" fill="#1E4BA5"/>
<path d="M4.16016 10.2783V10.8627C4.16016 10.9658 4.22891 11.0346 4.33203 11.0346H4.60703C4.71016 11.0346 4.77891 10.9658 4.77891 10.8627V10.2783H4.16016" fill="#1E4BA5"/>
<path d="M5.53516 10.2783V10.8627C5.53516 10.9658 5.60391 11.0346 5.70703 11.0346H5.98203C6.08516 11.0346 6.15391 10.9658 6.15391 10.8627V10.2783H5.53516" fill="#1E4BA5"/>
<path d="M4.84766 11.1035V11.6879C4.84766 11.791 4.91641 11.8598 5.01953 11.8598H5.29453C5.39766 11.8598 5.46641 11.791 5.46641 11.6879V11.1035H4.84766Z" fill="#1E4BA5"/>
<path d="M5.15469 10.6902C5.19266 10.6902 5.22344 10.6595 5.22344 10.6215C5.22344 10.5835 5.19266 10.5527 5.15469 10.5527C5.11672 10.5527 5.08594 10.5835 5.08594 10.6215C5.08594 10.6595 5.11672 10.6902 5.15469 10.6902Z" fill="white"/>
<path d="M5.01797 10.8621C5.05594 10.8621 5.08672 10.8313 5.08672 10.7934C5.08672 10.7554 5.05594 10.7246 5.01797 10.7246C4.98 10.7246 4.94922 10.7554 4.94922 10.7934C4.94922 10.8313 4.98 10.8621 5.01797 10.8621Z" fill="white"/>
<path d="M5.29336 10.8621C5.33133 10.8621 5.36211 10.8313 5.36211 10.7934C5.36211 10.7554 5.33133 10.7246 5.29336 10.7246C5.25539 10.7246 5.22461 10.7554 5.22461 10.7934C5.22461 10.8313 5.25539 10.8621 5.29336 10.8621Z" fill="white"/>
<path d="M5.01797 10.5184C5.05594 10.5184 5.08672 10.4876 5.08672 10.4496C5.08672 10.4116 5.05594 10.3809 5.01797 10.3809C4.98 10.3809 4.94922 10.4116 4.94922 10.4496C4.94922 10.4876 4.98 10.5184 5.01797 10.5184Z" fill="white"/>
<path d="M5.29336 10.5184C5.33133 10.5184 5.36211 10.4876 5.36211 10.4496C5.36211 10.4116 5.33133 10.3809 5.29336 10.3809C5.25539 10.3809 5.22461 10.4116 5.22461 10.4496C5.22461 10.4876 5.25539 10.5184 5.29336 10.5184Z" fill="white"/>
<path d="M5.15469 9.83086C5.19266 9.83086 5.22344 9.80008 5.22344 9.76211C5.22344 9.72414 5.19266 9.69336 5.15469 9.69336C5.11672 9.69336 5.08594 9.72414 5.08594 9.76211C5.08594 9.80008 5.11672 9.83086 5.15469 9.83086Z" fill="white"/>
<path d="M5.01797 10.0027C5.05594 10.0027 5.08672 9.97195 5.08672 9.93398C5.08672 9.89601 5.05594 9.86523 5.01797 9.86523C4.98 9.86523 4.94922 9.89601 4.94922 9.93398C4.94922 9.97195 4.98 10.0027 5.01797 10.0027Z" fill="white"/>
<path d="M5.29336 10.0027C5.33133 10.0027 5.36211 9.97195 5.36211 9.93398C5.36211 9.89601 5.33133 9.86523 5.29336 9.86523C5.25539 9.86523 5.22461 9.89601 5.22461 9.93398C5.22461 9.97195 5.25539 10.0027 5.29336 10.0027Z" fill="white"/>
<path d="M5.01797 9.65898C5.05594 9.65898 5.08672 9.6282 5.08672 9.59023C5.08672 9.55226 5.05594 9.52148 5.01797 9.52148C4.98 9.52148 4.94922 9.55226 4.94922 9.59023C4.94922 9.6282 4.98 9.65898 5.01797 9.65898Z" fill="white"/>
<path d="M5.29336 9.65898C5.33133 9.65898 5.36211 9.6282 5.36211 9.59023C5.36211 9.55226 5.33133 9.52148 5.29336 9.52148C5.25539 9.52148 5.22461 9.55226 5.22461 9.59023C5.22461 9.6282 5.25539 9.65898 5.29336 9.65898Z" fill="white"/>
<path d="M5.84219 10.6902C5.88016 10.6902 5.91094 10.6595 5.91094 10.6215C5.91094 10.5835 5.88016 10.5527 5.84219 10.5527C5.80422 10.5527 5.77344 10.5835 5.77344 10.6215C5.77344 10.6595 5.80422 10.6902 5.84219 10.6902Z" fill="white"/>
<path d="M5.70547 10.8621C5.74344 10.8621 5.77422 10.8313 5.77422 10.7934C5.77422 10.7554 5.74344 10.7246 5.70547 10.7246C5.6675 10.7246 5.63672 10.7554 5.63672 10.7934C5.63672 10.8313 5.6675 10.8621 5.70547 10.8621Z" fill="white"/>
<path d="M5.98086 10.8621C6.01883 10.8621 6.04961 10.8313 6.04961 10.7934C6.04961 10.7554 6.01883 10.7246 5.98086 10.7246C5.94289 10.7246 5.91211 10.7554 5.91211 10.7934C5.91211 10.8313 5.94289 10.8621 5.98086 10.8621Z" fill="white"/>
<path d="M5.70547 10.5184C5.74344 10.5184 5.77422 10.4876 5.77422 10.4496C5.77422 10.4116 5.74344 10.3809 5.70547 10.3809C5.6675 10.3809 5.63672 10.4116 5.63672 10.4496C5.63672 10.4876 5.6675 10.5184 5.70547 10.5184Z" fill="white"/>
<path d="M5.98086 10.5184C6.01883 10.5184 6.04961 10.4876 6.04961 10.4496C6.04961 10.4116 6.01883 10.3809 5.98086 10.3809C5.94289 10.3809 5.91211 10.4116 5.91211 10.4496C5.91211 10.4876 5.94289 10.5184 5.98086 10.5184Z" fill="white"/>
<path d="M4.46719 10.6902C4.50516 10.6902 4.53594 10.6595 4.53594 10.6215C4.53594 10.5835 4.50516 10.5527 4.46719 10.5527C4.42922 10.5527 4.39844 10.5835 4.39844 10.6215C4.39844 10.6595 4.42922 10.6902 4.46719 10.6902Z" fill="white"/>
<path d="M4.33047 10.8621C4.36844 10.8621 4.39922 10.8313 4.39922 10.7934C4.39922 10.7554 4.36844 10.7246 4.33047 10.7246C4.2925 10.7246 4.26172 10.7554 4.26172 10.7934C4.26172 10.8313 4.2925 10.8621 4.33047 10.8621Z" fill="white"/>
<path d="M4.60586 10.8621C4.64383 10.8621 4.67461 10.8313 4.67461 10.7934C4.67461 10.7554 4.64383 10.7246 4.60586 10.7246C4.56789 10.7246 4.53711 10.7554 4.53711 10.7934C4.53711 10.8313 4.56789 10.8621 4.60586 10.8621Z" fill="white"/>
<path d="M4.33047 10.5184C4.36844 10.5184 4.39922 10.4876 4.39922 10.4496C4.39922 10.4116 4.36844 10.3809 4.33047 10.3809C4.2925 10.3809 4.26172 10.4116 4.26172 10.4496C4.26172 10.4876 4.2925 10.5184 4.33047 10.5184Z" fill="white"/>
<path d="M4.60586 10.5184C4.64383 10.5184 4.67461 10.4876 4.67461 10.4496C4.67461 10.4116 4.64383 10.3809 4.60586 10.3809C4.56789 10.3809 4.53711 10.4116 4.53711 10.4496C4.53711 10.4876 4.56789 10.5184 4.60586 10.5184Z" fill="white"/>
<path d="M5.15469 11.5496C5.19266 11.5496 5.22344 11.5188 5.22344 11.4809C5.22344 11.4429 5.19266 11.4121 5.15469 11.4121C5.11672 11.4121 5.08594 11.4429 5.08594 11.4809C5.08594 11.5188 5.11672 11.5496 5.15469 11.5496Z" fill="white"/>
<path d="M5.01797 11.7215C5.05594 11.7215 5.08672 11.6907 5.08672 11.6527C5.08672 11.6148 5.05594 11.584 5.01797 11.584C4.98 11.584 4.94922 11.6148 4.94922 11.6527C4.94922 11.6907 4.98 11.7215 5.01797 11.7215Z" fill="white"/>
<path d="M5.29336 11.7215C5.33133 11.7215 5.36211 11.6907 5.36211 11.6527C5.36211 11.6148 5.33133 11.584 5.29336 11.584C5.25539 11.584 5.22461 11.6148 5.22461 11.6527C5.22461 11.6907 5.25539 11.7215 5.29336 11.7215Z" fill="white"/>
<path d="M5.01797 11.3777C5.05594 11.3777 5.08672 11.347 5.08672 11.309C5.08672 11.271 5.05594 11.2402 5.01797 11.2402C4.98 11.2402 4.94922 11.271 4.94922 11.309C4.94922 11.347 4.98 11.3777 5.01797 11.3777Z" fill="white"/>
<path d="M5.29336 11.3777C5.33133 11.3777 5.36211 11.347 5.36211 11.309C5.36211 11.271 5.33133 11.2402 5.29336 11.2402C5.25539 11.2402 5.22461 11.271 5.22461 11.309C5.22461 11.347 5.25539 11.3777 5.29336 11.3777Z" fill="white"/>
<path d="M4.8125 8.9375H5.5L5.43125 8.59375V8.25H5.5V8.07812H5.39688V8.18125H5.3625V8.07812H5.25937V8.18125H5.19063V8.07812H5.12187V8.18125H5.05313V8.07812H4.95V8.18125H4.88125V8.07812H4.8125V8.25H4.88125V8.59375L4.8125 8.9375Z" fill="#FEFE01"/>
<path d="M5.25898 8.93691H5.22461V8.79941C5.22461 8.76504 5.19023 8.73066 5.15586 8.73066C5.12148 8.73066 5.08711 8.76504 5.08711 8.79941V8.93691H5.05273V8.79941C5.05273 8.73066 5.08711 8.69629 5.15586 8.69629C5.22461 8.69629 5.25898 8.73066 5.25898 8.79941V8.93691Z" fill="#3E4347"/>
<path d="M5.15547 8.55918H4.94922V8.3873C4.94922 8.31855 4.98359 8.28418 5.05234 8.28418C5.12109 8.28418 5.15547 8.31855 5.15547 8.3873V8.55918ZM4.98359 8.5248H5.12109V8.3873C5.12109 8.35293 5.08672 8.31855 5.05234 8.31855C5.01797 8.31855 4.98359 8.35293 4.98359 8.3873V8.5248Z" fill="#3E4347"/>
<path d="M5.3625 8.55918H5.15625V8.3873C5.15625 8.31855 5.19062 8.28418 5.25937 8.28418C5.32812 8.28418 5.3625 8.31855 5.3625 8.3873V8.55918ZM5.19063 8.5248H5.32813V8.3873C5.32813 8.35293 5.29375 8.31855 5.25937 8.31855C5.225 8.31855 5.19063 8.35293 5.19063 8.3873V8.5248Z" fill="#3E4347"/>
<path d="M3.09375 8.9375H3.78125L3.7125 8.59375V8.25H3.78125V8.07812H3.67812V8.18125H3.64375V8.07812H3.54063V8.18125H3.47188V8.07812H3.40312V8.18125H3.33437V8.07812H3.23125V8.18125H3.1625V8.07812H3.09375V8.25H3.1625V8.59375L3.09375 8.9375Z" fill="#FEFE01"/>
<path d="M3.54024 8.93691H3.50586V8.79941C3.50586 8.76504 3.47149 8.73066 3.43711 8.73066C3.40273 8.73066 3.36836 8.76504 3.36836 8.79941V8.93691H3.33398V8.79941C3.33398 8.73066 3.36836 8.69629 3.43711 8.69629C3.50586 8.69629 3.54024 8.73066 3.54024 8.79941V8.93691" fill="#3E4347"/>
<path d="M3.43672 8.55918H3.23047V8.3873C3.23047 8.31855 3.26484 8.28418 3.33359 8.28418C3.40234 8.28418 3.43672 8.31855 3.43672 8.3873V8.55918V8.55918ZM3.26484 8.5248H3.40234V8.3873C3.40234 8.35293 3.36797 8.31855 3.33359 8.31855C3.29922 8.31855 3.26484 8.35293 3.26484 8.3873V8.5248" fill="#3E4347"/>
<path d="M3.64375 8.55918H3.4375V8.3873C3.4375 8.31855 3.47188 8.28418 3.54063 8.28418C3.60938 8.28418 3.64375 8.31855 3.64375 8.3873V8.55918V8.55918ZM3.47188 8.5248H3.60938V8.3873C3.60938 8.35293 3.575 8.31855 3.54063 8.31855C3.50625 8.31855 3.47188 8.35293 3.47188 8.3873V8.5248" fill="#3E4347"/>
<path d="M3.09375 10.9658H3.78125L3.7125 10.6221V10.2783H3.78125V10.1064H3.7125V10.2096H3.64375V10.1064H3.575V10.2096H3.47188V10.1064H3.40312V10.2096H3.33437V10.1064H3.26562V10.2096H3.19688V10.1064H3.09375V10.2783H3.19688V10.6221L3.09375 10.9658Z" fill="#FEFE01"/>
<path d="M3.54024 10.9652H3.50586V10.8277C3.50586 10.7934 3.47149 10.759 3.43711 10.759C3.40273 10.759 3.36836 10.7934 3.36836 10.8277V10.9652H3.33398V10.8277C3.33398 10.759 3.36836 10.7246 3.43711 10.7246C3.50586 10.7246 3.54024 10.759 3.54024 10.8277V10.9652" fill="#3E4347"/>
<path d="M3.43672 10.5875H3.23047V10.4156C3.23047 10.3469 3.26484 10.3125 3.33359 10.3125C3.40234 10.3125 3.43672 10.3469 3.43672 10.4156V10.5875V10.5875ZM3.26484 10.5531H3.40234V10.4156C3.40234 10.3812 3.36797 10.3469 3.33359 10.3469C3.29922 10.3469 3.26484 10.3812 3.26484 10.4156V10.5531" fill="#3E4347"/>
<path d="M3.67695 10.5875H3.4707V10.4156C3.4707 10.3469 3.50508 10.3125 3.57383 10.3125C3.64258 10.3125 3.67695 10.3469 3.67695 10.4156V10.5875V10.5875ZM3.50508 10.5531H3.64258V10.4156C3.64258 10.3812 3.6082 10.3469 3.57383 10.3469C3.53945 10.3469 3.50508 10.3812 3.50508 10.4156V10.5531" fill="#3E4347"/>
<path d="M6.53125 10.9998H7.21875L7.15 10.6561V10.3123H7.21875V10.1748H7.11563V10.2436H7.08125V10.1748H6.97812V10.2436H6.90938V10.1748H6.84062V10.2436H6.77188V10.1748H6.66875V10.2436H6.6V10.1748H6.53125V10.3123H6.6V10.6561L6.53125 10.9998Z" fill="#FEFE01"/>
<path d="M6.97773 10.9994H6.94336V10.8619C6.94336 10.8275 6.90898 10.7932 6.87461 10.7932C6.84023 10.7932 6.80586 10.8275 6.80586 10.8619V10.9994H6.77148V10.8619C6.77148 10.7932 6.80586 10.7588 6.87461 10.7588C6.94336 10.7588 6.97773 10.7932 6.97773 10.8619V10.9994Z" fill="#3E4347"/>
<path d="M6.87422 10.6217H6.66797V10.4498C6.66797 10.3811 6.70234 10.3467 6.77109 10.3467C6.83984 10.3467 6.87422 10.3811 6.87422 10.4498V10.6217ZM6.70234 10.5873H6.83984V10.4498C6.83984 10.4154 6.80547 10.3811 6.77109 10.3811C6.73672 10.3811 6.70234 10.4154 6.70234 10.4498V10.5873Z" fill="#3E4347"/>
<path d="M7.08125 10.6217H6.875V10.4498C6.875 10.3811 6.90937 10.3467 6.97812 10.3467C7.04687 10.3467 7.08125 10.3811 7.08125 10.4498V10.6217ZM6.90938 10.5873H7.04688V10.4498C7.04688 10.4154 7.0125 10.3811 6.97812 10.3811C6.94375 10.3811 6.90938 10.4154 6.90938 10.4498V10.5873Z" fill="#3E4347"/>
<path d="M6.53125 8.9375H7.21875L7.15 8.59375V8.25H7.21875V8.07812H7.11563V8.18125H7.08125V8.07812H6.97812V8.18125H6.90938V8.07812H6.84062V8.18125H6.77188V8.07812H6.66875V8.18125H6.6V8.07812H6.53125V8.25H6.6V8.59375L6.53125 8.9375Z" fill="#FEFE01"/>
<path d="M6.97773 8.93691H6.94336V8.79941C6.94336 8.76504 6.90898 8.73066 6.87461 8.73066C6.84023 8.73066 6.80586 8.76504 6.80586 8.79941V8.93691H6.77148V8.79941C6.77148 8.73066 6.80586 8.69629 6.87461 8.69629C6.94336 8.69629 6.97773 8.73066 6.97773 8.79941V8.93691Z" fill="#3E4347"/>
<path d="M6.87422 8.55918H6.66797V8.3873C6.66797 8.31855 6.70234 8.28418 6.77109 8.28418C6.83984 8.28418 6.87422 8.31855 6.87422 8.3873V8.55918ZM6.70234 8.5248H6.83984V8.3873C6.83984 8.35293 6.80547 8.31855 6.77109 8.31855C6.73672 8.31855 6.70234 8.35293 6.70234 8.3873V8.5248Z" fill="#3E4347"/>
<path d="M7.08125 8.55918H6.875V8.3873C6.875 8.31855 6.90937 8.28418 6.97812 8.28418C7.04687 8.28418 7.08125 8.31855 7.08125 8.3873V8.55918ZM6.90938 8.5248H7.04688V8.3873C7.04688 8.35293 7.0125 8.31855 6.97812 8.31855C6.94375 8.31855 6.90938 8.35293 6.90938 8.3873V8.5248Z" fill="#3E4347"/>
<path d="M4.19375 12.9252L4.675 12.4096L4.36563 12.2377L4.125 11.9971L4.19375 11.9283L4.09063 11.8252L4.02188 11.8939L4.09063 11.9627L4.05625 11.9971L3.9875 11.9283L3.91875 11.9971L3.9875 12.0314L3.91875 12.1002L3.88438 12.0314L3.81563 12.1002L3.88438 12.1689L3.81563 12.2033L3.78125 12.1346L3.7125 12.2033L3.74687 12.2721L3.7125 12.3064L3.67812 12.2377L3.60938 12.3064L3.7125 12.4096H3.74687L3.78125 12.3752L4.02188 12.6158L4.19375 12.9252Z" fill="#FEFE01"/>
<path d="M4.50195 12.5809L4.36445 12.5121C4.33008 12.4777 4.2957 12.4777 4.26133 12.5121C4.22695 12.5465 4.22695 12.5809 4.26133 12.6152L4.36445 12.7184L4.33008 12.7527L4.22695 12.6496C4.19258 12.6152 4.19258 12.5465 4.22695 12.5121C4.26133 12.4777 4.33008 12.4777 4.36445 12.5121L4.50195 12.5809Z" fill="#3E4347"/>
<path d="M4.15899 12.4092L4.02148 12.5467L3.91836 12.4436C3.88398 12.4092 3.88398 12.3404 3.91836 12.3061C3.95273 12.2717 4.02148 12.2717 4.05586 12.3061L4.15899 12.4092ZM4.02148 12.5123L4.12461 12.4092L4.02148 12.3061C3.98711 12.2717 3.95273 12.2717 3.91836 12.3061C3.88398 12.3404 3.88398 12.3748 3.91836 12.4092L4.02148 12.5123Z" fill="#3E4347"/>
<path d="M4.33086 12.2373L4.19336 12.3748L4.09023 12.2717C4.05586 12.2373 4.05586 12.1686 4.09023 12.1342C4.12461 12.0998 4.19336 12.0998 4.22773 12.1342L4.33086 12.2373ZM4.19336 12.3404L4.29648 12.2373L4.19336 12.1342C4.15898 12.0998 4.12461 12.0998 4.09023 12.1342C4.05586 12.1686 4.05586 12.2029 4.09023 12.2373L4.19336 12.3404Z" fill="#3E4347"/>
<path d="M6.11797 12.9252L5.63672 12.4096L5.91172 12.2377L6.15234 11.9971L6.11797 11.9283L6.22109 11.8252L6.28984 11.8939L6.22109 11.9627L6.25547 11.9971L6.32422 11.9283L6.39297 11.9971L6.32422 12.0314L6.39297 12.1002L6.42734 12.0314L6.49609 12.1002L6.42734 12.1689L6.49609 12.2033L6.53047 12.1346L6.59922 12.2033L6.53047 12.2721L6.59922 12.3064L6.63359 12.2377L6.70234 12.3064L6.59922 12.4096H6.56484L6.53047 12.3752L6.28984 12.6158L6.11797 12.9252Z" fill="#FEFE01"/>
<path d="M5.80859 12.5809L5.94609 12.5121C5.98047 12.4777 6.01484 12.4777 6.04922 12.5121C6.08359 12.5465 6.08359 12.5809 6.04922 12.6152L5.91172 12.7184L5.94609 12.7527L6.04922 12.6496C6.08359 12.6152 6.08359 12.5465 6.04922 12.5121C6.01484 12.4777 5.94609 12.4777 5.91172 12.5121L5.80859 12.5809" fill="#3E4347"/>
<path d="M6.25547 12.3061C6.28984 12.2717 6.35859 12.2717 6.39297 12.3061C6.42734 12.3404 6.42734 12.4092 6.39297 12.4436L6.28984 12.5467L6.15234 12.4092L6.25547 12.3061ZM6.35859 12.4092C6.39297 12.3748 6.39297 12.3404 6.35859 12.3061C6.32422 12.2717 6.28984 12.2717 6.25547 12.3061L6.18672 12.4092L6.28984 12.5123L6.35859 12.4092Z" fill="#3E4347"/>
<path d="M6.08359 12.1342C6.11797 12.0998 6.18672 12.0998 6.22109 12.1342C6.25547 12.1686 6.25547 12.2373 6.22109 12.2717L6.11797 12.3748L5.98047 12.2373L6.08359 12.1342ZM6.22109 12.2373C6.25547 12.2029 6.25547 12.1686 6.22109 12.1342C6.18672 12.0998 6.15234 12.0998 6.11797 12.1342L6.01484 12.2373L6.11797 12.3404L6.22109 12.2373Z" fill="#3E4347"/>
</svg>
