<svg width="22" height="13" viewBox="0 0 22 13" fill="none" xmlns="http://www.w3.org/2000/svg">
<path fill-rule="evenodd" clip-rule="evenodd" d="M-2.84124e-07 6.5C-2.92496e-07 6.30848 0.0827748 6.12481 0.230115 5.98938C0.377456 5.85396 0.577293 5.77788 0.785664 5.77788L19.3163 5.77788L14.3714 1.23429C14.2238 1.0987 14.141 0.914793 14.141 0.723032C14.141 0.531272 14.2238 0.347366 14.3714 0.211771C14.5189 0.076176 14.719 3.10287e-07 14.9276 3.01167e-07C15.1363 2.92048e-07 15.3363 0.076176 15.4839 0.211771L21.7692 5.98874C21.8423 6.05582 21.9004 6.1355 21.94 6.22323C21.9796 6.31097 22 6.40502 22 6.5C22 6.59498 21.9796 6.68903 21.94 6.77676C21.9004 6.86449 21.8423 6.94418 21.7692 7.01126L15.4839 12.7882C15.3363 12.9238 15.1363 13 14.9276 13C14.719 13 14.5189 12.9238 14.3714 12.7882C14.2238 12.6526 14.141 12.4687 14.141 12.277C14.141 12.0852 14.2238 11.9013 14.3714 11.7657L19.3163 7.22212L0.785664 7.22212C0.577293 7.22212 0.377456 7.14604 0.230115 7.01062C0.0827748 6.87519 -2.75752e-07 6.69152 -2.84124e-07 6.5Z" fill="#363369"/>
</svg>
