<svg width="12" height="14" viewBox="0 0 12 14" fill="none" xmlns="http://www.w3.org/2000/svg">
<path d="M8.68637 1V0.95H8.63637H2.09091C1.46314 0.95 0.95 1.46509 0.95 2.09456V9.75645V9.80645H1H2.09091H2.14091V9.75645V2.14456H8.63637H8.68637V2.09456V1ZM10.2727 3.13911H4.27273C3.64496 3.13911 3.13182 3.65421 3.13182 4.28367V11.9456C3.13182 12.575 3.64496 13.0901 4.27273 13.0901H10.2727C10.9005 13.0901 11.4136 12.575 11.4136 11.9456V4.28367C11.4136 3.65421 10.9005 3.13911 10.2727 3.13911ZM10.2227 11.8956H4.32273V4.33367H10.2227V11.8956Z" fill="white" stroke="white" stroke-width="0.1"/>
</svg>
