<svg width="12" height="16" viewBox="0 0 12 16" fill="none" xmlns="http://www.w3.org/2000/svg">
<path d="M8.68637 0.917969V0.867969H8.63637H2.09091C1.45431 0.867969 0.95 1.50141 0.95 2.25378V11.6044V11.6544H1H2.09091H2.14091V11.6044V2.30378H8.63637H8.68637V2.25378V0.917969ZM10.2727 3.53958H4.27273C3.63613 3.53958 3.13182 4.17302 3.13182 4.92539V14.276C3.13182 15.0284 3.63613 15.6618 4.27273 15.6618H10.2727C10.9093 15.6618 11.4136 15.0284 11.4136 14.276V4.92539C11.4136 4.17302 10.9093 3.53958 10.2727 3.53958ZM10.2227 14.226H4.32273V4.97539H10.2227V14.226Z" fill="#191654" stroke="#191654" stroke-width="0.1"/>
</svg>
