<svg width="19" height="21" viewBox="0 0 19 21" fill="none" xmlns="http://www.w3.org/2000/svg">
<path d="M10.51 1.16779C10.51 0.858071 10.3869 0.56104 10.1679 0.342037C9.94894 0.123034 9.65191 0 9.34219 0C9.03247 0 8.73544 0.123034 8.51644 0.342037C8.29744 0.56104 8.1744 0.858071 8.1744 1.16779L8.1709 10.5136C8.1709 10.8233 8.29393 11.1203 8.51294 11.3393C8.73194 11.5584 9.02897 11.6814 9.33869 11.6814C9.6484 11.6814 9.94543 11.5584 10.1644 11.3393C10.3834 11.1203 10.5065 10.8233 10.5065 10.5136L10.51 1.16896V1.16779Z" fill="#191654"/>
<path d="M0 11.6579C0 9.07712 1.04517 6.74155 2.73613 5.05176L4.38738 6.70301C3.40742 7.6829 2.74005 8.93138 2.46966 10.2906C2.19927 11.6498 2.33799 13.0586 2.8683 14.3389C3.39861 15.6193 4.29668 16.7136 5.44894 17.4835C6.6012 18.2535 7.9559 18.6644 9.34172 18.6644C10.7275 18.6644 12.0822 18.2535 13.2345 17.4835C14.3868 16.7136 15.2848 15.6193 15.8151 14.3389C16.3454 13.0586 16.4842 11.6498 16.2138 10.2906C15.9434 8.93138 15.276 7.6829 14.2961 6.70301L15.9485 5.05176C17.0348 6.13813 17.8364 7.47565 18.2824 8.94583C18.7283 10.416 18.8048 11.9735 18.5051 13.4803C18.2053 14.9871 17.5386 16.3967 16.564 17.5843C15.5894 18.7719 14.3369 19.7008 12.9175 20.2887C11.4981 20.8767 9.95565 21.1055 8.42672 20.9549C6.89779 20.8044 5.42959 20.2791 4.15216 19.4255C2.87473 18.572 1.82751 17.4167 1.10325 16.0618C0.378996 14.7069 5.59818e-05 13.1943 0 11.6579Z" fill="#191654"/>
</svg>
