<svg width="10" height="7" viewBox="0 0 10 7" fill="none" xmlns="http://www.w3.org/2000/svg">
<path d="M4.65726 6.15342C4.69549 6.20894 4.74663 6.25433 4.8063 6.28569C4.86596 6.31705 4.93236 6.33344 4.99976 6.33344C5.06716 6.33344 5.13356 6.31705 5.19322 6.28569C5.25289 6.25433 5.30404 6.20894 5.34226 6.15342L9.09226 0.736758C9.13567 0.674282 9.16112 0.601104 9.16586 0.525177C9.1706 0.44925 9.15444 0.373476 9.11913 0.306089C9.08383 0.238701 9.03073 0.182278 8.96561 0.142949C8.90049 0.103619 8.82584 0.0828885 8.74976 0.0830083H1.24976C1.17386 0.0833218 1.09948 0.104319 1.03463 0.143743C0.96977 0.183166 0.916886 0.239524 0.881664 0.306755C0.846441 0.373987 0.830212 0.449548 0.834722 0.525313C0.839232 0.601078 0.86431 0.67418 0.90726 0.736758L4.65726 6.15342Z" fill="#d2d2d2"/>
</svg>
