<?xml version="1.0" encoding="UTF-8"?>
<svg fill="none" version="1.1" viewBox="0 0 164 38" xmlns="http://www.w3.org/2000/svg">
<g transform="translate(.313)">
<g clip-path="url(#a)">
<path d="m1.2944 6.4838c-1.2944 2.5412-1.2944 5.8662-1.2944 12.516s0 9.975 1.2944 12.516c1.14 2.2325 2.9569 4.0493 5.1894 5.1893 2.5412 1.2944 5.8662 1.2944 12.516 1.2944s9.975 0 12.516-1.2944c2.2325-1.14 4.0493-2.9568 5.1893-5.1893 1.2944-2.5413 1.2944-5.8663 1.2944-12.516s0-9.975-1.2944-12.516c-1.14-2.2325-2.9568-4.0494-5.1893-5.1894-2.5413-1.2944-5.8663-1.2944-12.516-1.2944s-9.975 0-12.516 1.2944c-2.2325 1.14-4.0494 2.9569-5.1894 5.1894zm27.188 3.7644c0.3325 0 0.6472 0.1366 0.8788 0.3682 0.2315 0.2375 0.3622 0.5581 0.3562 0.8846-0.0593 3.5388-0.1959 6.2463-0.4512 8.3897-0.2494 2.1435-0.6235 3.7347-1.1875 5.0232-0.38 0.8609-0.8491 1.5734-1.4013 2.179-0.7422 0.8016-1.5912 1.3835-2.5175 1.9357-0.396 0.2368-0.8077 0.4706-1.2396 0.7159-0.9215 0.5233-1.9347 1.0987-3.0829 1.8669-0.4156 0.279-0.9559 0.279-1.3715 0-1.1658-0.7772-2.1924-1.3597-3.1223-1.8872-0.2068-0.1173-0.4088-0.2319-0.6065-0.3453-1.0865-0.6294-2.0662-1.2291-2.9212-2.096-0.57-0.57-1.0628-1.2647-1.4547-2.09-0.53439-1.1044-0.89658-2.4403-1.1638-4.1681-0.35626-2.3097-0.53438-5.3319-0.59969-9.5238-0.00594-0.3265 0.11875-0.6471 0.35031-0.8846 0.23156-0.2316 0.55219-0.3682 0.88469-0.3682h0.51065c1.5734 6e-3 5.0468-0.1484 8.0512-2.4878 0.4453-0.34438 1.0688-0.34438 1.5141 0 3.0044 2.3394 6.4778 2.4938 8.0572 2.4878zm-2.7609 13.876c0.3859-0.7957 0.7066-1.8941 0.95-3.4735 0.2909-1.8881 0.4691-4.4531 0.5522-7.9443-1.8525-0.0535-5.035-0.4097-8.0691-2.4522-3.034 2.0365-6.2165 2.3928-8.0631 2.4522 0.0653 2.8856 0.1959 5.13 0.4037 6.8934 0.2375 2.0069 0.576 3.3666 0.9975 4.3225 0.2791 0.6353 0.5879 1.0925 0.956 1.4962 0.4928 0.5404 1.1162 0.9857 1.9653 1.4963 0.3522 0.2113 0.7405 0.4311 1.1632 0.6704 0.7531 0.4262 1.6153 0.9142 2.5774 1.5265 0.9444-0.6023 1.7942-1.0853 2.5385-1.5084 0.2244-0.1275 0.4391-0.2496 0.644-0.3679 1.045-0.5997 1.8169-1.0984 2.3928-1.6803 0.386-0.3978 0.7007-0.8312 0.9916-1.4309z" clip-rule="evenodd" fill="#3375bb" fill-rule="evenodd"/>
</g>
<path d="m53.332 15.208h-4.256v-2.508h11.59v2.508h-4.256v10.792h-3.078zm10.82 1.919c0.3546-0.494 0.8296-0.8677 1.425-1.121 0.608-0.2533 1.3046-0.38 2.09-0.38v2.736c-0.3294-0.0253-0.551-0.038-0.665-0.038-0.8487 0-1.5137 0.2407-1.995 0.722-0.4814 0.4687-0.722 1.178-0.722 2.128v4.826h-2.964v-10.222h2.831zm15.08-1.349v10.222h-2.812v-1.216c-0.3927 0.4433-0.8613 0.7853-1.406 1.026-0.5447 0.228-1.1337 0.342-1.767 0.342-1.3427 0-2.4067-0.3863-3.192-1.159-0.7854-0.7727-1.178-1.919-1.178-3.439v-5.776h2.964v5.339c0 1.6467 0.6903 2.47 2.071 2.47 0.7093 0 1.2793-0.228 1.71-0.684 0.4307-0.4687 0.646-1.159 0.646-2.071v-5.054zm5.6149 10.374c-0.8486 0-1.6783-0.1013-2.489-0.304-0.8106-0.2153-1.4566-0.4813-1.938-0.798l0.988-2.128c0.456 0.2913 1.007 0.532 1.653 0.722 0.646 0.1773 1.2794 0.266 1.9 0.266 1.254 0 1.881-0.3103 1.881-0.931 0-0.2913-0.171-0.5003-0.513-0.627s-0.8676-0.2343-1.577-0.323c-0.836-0.1267-1.5263-0.2723-2.071-0.437-0.5446-0.1647-1.0196-0.456-1.425-0.874-0.3926-0.418-0.589-1.0133-0.589-1.786 0-0.646 0.1837-1.216 0.551-1.71 0.38-0.5067 0.9247-0.8993 1.634-1.178 0.722-0.2787 1.5707-0.418 2.546-0.418 0.722 0 1.4377 0.0823 2.147 0.247 0.722 0.152 1.3174 0.3673 1.786 0.646l-0.988 2.109c-0.8993-0.5067-1.881-0.76-2.945-0.76-0.6333 0-1.1083 0.0887-1.425 0.266-0.3166 0.1773-0.475 0.4053-0.475 0.684 0 0.3167 0.171 0.5383 0.513 0.665s0.8867 0.247 1.634 0.361c0.836 0.1393 1.52 0.2913 2.052 0.456 0.532 0.152 0.9944 0.437 1.387 0.855 0.3927 0.418 0.589 1.0007 0.589 1.748 0 0.6333-0.19 1.197-0.57 1.691s-0.9373 0.8803-1.672 1.159c-0.722 0.266-1.5833 0.399-2.584 0.399zm12.678-0.646c-0.2913 0.2153-0.6523 0.38-1.083 0.494-0.418 0.1013-0.8613 0.152-1.33 0.152-1.216 0-2.1597-0.3103-2.831-0.931-0.6587-0.6207-0.988-1.5327-0.988-2.736v-4.199h-1.577v-2.28h1.577v-2.489h2.964v2.489h2.546v2.28h-2.546v4.161c0 0.4307 0.1077 0.7663 0.323 1.007 0.228 0.228 0.5447 0.342 0.95 0.342 0.4687 0 0.8677-0.1267 1.197-0.38zm26.215-12.806-4.351 13.3h-3.306l-2.926-9.006-3.021 9.006h-3.287l-4.37-13.3h3.192l3.002 9.348 3.135-9.348h2.85l3.04 9.424 3.097-9.424zm4.302 2.926c1.583 0 2.799 0.38 3.648 1.14 0.849 0.7473 1.273 1.881 1.273 3.401v5.833h-2.774v-1.273c-0.557 0.95-1.596 1.425-3.116 1.425-0.785 0-1.469-0.133-2.052-0.399-0.57-0.266-1.007-0.6333-1.311-1.102s-0.456-1.0007-0.456-1.596c0-0.95 0.355-1.6973 1.064-2.242 0.722-0.5447 1.83-0.817 3.325-0.817h2.356c0-0.646-0.196-1.14-0.589-1.482-0.393-0.3547-0.982-0.532-1.767-0.532-0.545 0-1.083 0.0887-1.615 0.266-0.519 0.1647-0.963 0.3927-1.33 0.684l-1.064-2.071c0.557-0.3927 1.222-0.6967 1.995-0.912 0.785-0.2153 1.59-0.323 2.413-0.323zm-0.228 8.531c0.507 0 0.956-0.114 1.349-0.342 0.393-0.2407 0.671-0.589 0.836-1.045v-1.045h-2.033c-1.216 0-1.824 0.399-1.824 1.197 0 0.38 0.146 0.684 0.437 0.912 0.304 0.2153 0.716 0.323 1.235 0.323zm7.262-12.255h2.964v14.098h-2.964zm5.144 0h2.964v14.098h-2.964zm15.158 9.025c0 0.038-0.019 0.304-0.057 0.798h-7.733c0.14 0.6333 0.469 1.1337 0.988 1.501 0.52 0.3673 1.166 0.551 1.938 0.551 0.532 0 1.001-0.076 1.406-0.228 0.418-0.1647 0.805-0.418 1.159-0.76l1.577 1.71c-0.962 1.102-2.368 1.653-4.218 1.653-1.152 0-2.172-0.2217-3.059-0.665-0.886-0.456-1.57-1.083-2.052-1.881-0.481-0.798-0.722-1.7037-0.722-2.717 0-1.0007 0.235-1.9 0.703-2.698 0.482-0.8107 1.134-1.4377 1.957-1.881 0.836-0.456 1.767-0.684 2.793-0.684 1.001 0 1.907 0.2153 2.717 0.646 0.811 0.4307 1.444 1.0513 1.9 1.862 0.469 0.798 0.703 1.729 0.703 2.793zm-5.301-3.059c-0.671 0-1.235 0.19-1.691 0.57s-0.734 0.8993-0.836 1.558h5.035c-0.101-0.646-0.38-1.159-0.836-1.539-0.456-0.3927-1.013-0.589-1.672-0.589zm13.298 7.638c-0.292 0.2153-0.653 0.38-1.083 0.494-0.418 0.1013-0.862 0.152-1.33 0.152-1.216 0-2.16-0.3103-2.831-0.931-0.659-0.6207-0.988-1.5327-0.988-2.736v-4.199h-1.577v-2.28h1.577v-2.489h2.964v2.489h2.546v2.28h-2.546v4.161c0 0.4307 0.107 0.7663 0.323 1.007 0.228 0.228 0.544 0.342 0.95 0.342 0.468 0 0.867-0.1267 1.197-0.38z" fill="#3375bb"/>
</g>
<defs>
<clipPath id="a">
<rect width="38" height="38" fill="#fff"/>
</clipPath>
</defs>
</svg>
