<svg width="23" height="25" viewBox="0 0 23 25" fill="none" xmlns="http://www.w3.org/2000/svg">
<path d="M0.90233 20.402C1.47928 18.9987 2.31654 17.7239 3.36747 16.6489C4.41521 15.5707 5.65636 14.7111 7.02237 14.1175C7.0346 14.1112 7.04684 14.108 7.05907 14.1018C5.15363 12.6884 3.91494 10.3863 3.91494 7.78894C3.91494 3.48618 7.30987 0 11.5 0C15.6901 0 19.0851 3.48618 19.0851 7.78894C19.0851 10.3863 17.8464 12.6884 15.9409 14.1049C15.9532 14.1112 15.9654 14.1143 15.9776 14.1206C17.3478 14.7142 18.5773 15.5653 19.6325 16.652C20.6825 17.7279 21.5196 19.0024 22.0977 20.4052C22.6656 21.7784 22.9718 23.2508 22.9999 24.7425C23.0007 24.776 22.995 24.8093 22.9831 24.8405C22.9712 24.8718 22.9533 24.9002 22.9305 24.9242C22.9077 24.9482 22.8804 24.9673 22.8503 24.9803C22.8202 24.9933 22.7879 25 22.7552 25H20.9202C20.7856 25 20.6785 24.8901 20.6755 24.755C20.6143 22.3304 19.6662 20.0597 17.9901 18.3386C16.256 16.5578 13.9529 15.5779 11.5 15.5779C9.04709 15.5779 6.74405 16.5578 5.00988 18.3386C3.33383 20.0597 2.3857 22.3304 2.32453 24.755C2.32147 24.8932 2.21442 25 2.07985 25H0.244755C0.212102 25 0.179777 24.9933 0.149685 24.9803C0.119593 24.9673 0.0923443 24.9482 0.0695419 24.9242C0.0467396 24.9002 0.0288465 24.8718 0.0169163 24.8405C0.004986 24.8093 -0.000740033 24.776 7.62939e-05 24.7425C0.0306612 23.2412 0.333451 21.7808 0.90233 20.402ZM11.5 13.191C12.9038 13.191 14.2251 12.6288 15.2191 11.608C16.2131 10.5873 16.7606 9.23053 16.7606 7.78894C16.7606 6.34736 16.2131 4.99058 15.2191 3.96985C14.2251 2.94912 12.9038 2.38693 11.5 2.38693C10.0962 2.38693 8.77489 2.94912 7.78088 3.96985C6.78687 4.99058 6.2394 6.34736 6.2394 7.78894C6.2394 9.23053 6.78687 10.5873 7.78088 11.608C8.77489 12.6288 10.0962 13.191 11.5 13.191Z" fill="#191654"/>
</svg>
