<svg width="21" height="21" viewBox="0 0 21 21" fill="none" xmlns="http://www.w3.org/2000/svg">
<path d="M6.87461 20.0406V15.2969L3.33398 17.9094C4.33086 18.8375 5.53398 19.5594 6.87461 20.0406" fill="#00247D"/>
<path d="M13.75 20.0408C15.0906 19.5596 16.2938 18.8377 17.2906 17.9096L13.75 15.2627V20.0408Z" fill="#00247D"/>
<path d="M0.583984 13.75C0.687109 14.0938 0.824609 14.4031 0.996484 14.7469L2.33711 13.75H0.583984Z" fill="#00247D"/>
<path d="M18.2871 13.75L19.6277 14.7469C19.7652 14.4375 19.9027 14.0938 20.0402 13.75H18.2871Z" fill="#00247D"/>
<path d="M7.39141 12.375H0.207031C0.310156 12.8562 0.447656 13.3031 0.585156 13.75H2.33828L0.997656 14.7469C1.27266 15.3313 1.58203 15.8469 1.96016 16.3625L5.50078 13.75H6.87578V14.4375L2.85391 17.3937L3.33516 17.875L6.87578 15.2969V20.0406C7.32266 20.2125 7.76953 20.3156 8.25078 20.4188V12.375H7.39141Z" fill="white"/>
<path d="M20.4188 12.375H12.375V20.4188C12.8562 20.3156 13.3031 20.1781 13.75 20.0406V15.2969L17.2906 17.875C17.7719 17.4281 18.1844 16.9469 18.5969 16.4312L14.9188 13.75H17.2563L19.3531 15.2969C19.4562 15.125 19.5594 14.9188 19.6281 14.7469L18.2875 13.75H20.0406C20.1781 13.3031 20.3156 12.8562 20.4188 12.375" fill="white"/>
<path d="M1.95898 16.3623C2.23398 16.7404 2.50898 17.0842 2.81836 17.4279L6.87461 14.4717V13.7842H5.49961L1.95898 16.3623Z" fill="#CF1B2B"/>
<path d="M14.9531 13.75L18.6313 16.4312C18.7688 16.2594 18.8719 16.0875 19.0094 15.9156C19.0438 15.8812 19.0438 15.8469 19.0781 15.8469C19.1813 15.675 19.3188 15.4687 19.4219 15.2969L17.2563 13.75H14.9531Z" fill="#CF1B2B"/>
<path d="M13.75 0.583984V5.32773L17.2906 2.71523C16.2938 1.78711 15.0906 1.06523 13.75 0.583984Z" fill="#00247D"/>
<path d="M6.87461 0.583984C5.53398 1.06523 4.33086 1.78711 3.33398 2.71523L6.87461 5.36211V0.583984Z" fill="#00247D"/>
<path d="M20.0402 6.8748C19.9371 6.53105 19.7996 6.22168 19.6277 5.87793L18.2871 6.8748H20.0402" fill="#00247D"/>
<path d="M2.33711 6.8748L0.996484 5.87793C0.858984 6.22168 0.721484 6.53105 0.583984 6.8748H2.33711Z" fill="#00247D"/>
<path d="M13.2344 8.2498H20.3844C20.2812 7.76855 20.1438 7.32168 20.0063 6.8748H18.2531L19.5938 5.87793C19.3187 5.29355 19.0094 4.77793 18.6313 4.2623L15.125 6.8748H13.75V6.1873L17.7719 3.23105L17.2906 2.7498L13.75 5.32793V0.58418C13.3031 0.412305 12.8562 0.30918 12.375 0.206055V8.2498H13.2344Z" fill="white"/>
<path d="M0.207031 8.2498H8.25078V0.206055C7.76953 0.30918 7.32266 0.44668 6.87578 0.58418V5.32793L3.33516 2.7498C2.85391 3.19668 2.44141 3.67793 2.02891 4.19355L5.70703 6.8748H3.36953L1.27266 5.32793C1.16953 5.4998 1.06641 5.70605 0.997656 5.87793L2.33828 6.8748H0.585156C0.447656 7.32168 0.310156 7.76855 0.207031 8.2498Z" fill="white"/>
<path d="M18.6656 4.26289C18.3906 3.88477 18.1156 3.54102 17.8062 3.19727L13.75 6.15352V6.84102H15.125L18.6656 4.26289" fill="#CF1B2B"/>
<path d="M5.67266 6.87461L2.02891 4.19336C1.89141 4.36523 1.78828 4.53711 1.65078 4.70898C1.61641 4.74336 1.61641 4.77773 1.58203 4.77773C1.47891 4.94961 1.34141 5.15586 1.23828 5.32773L3.33516 6.87461H5.67266Z" fill="#CF1B2B"/>
<path d="M20.4188 8.25H12.375V0.20625C11.7219 0.06875 11.0344 0 10.3125 0C9.59063 0 8.90312 0.06875 8.25 0.20625V8.25H0.20625C0.06875 8.90312 0 9.59063 0 10.3125C0 11.0344 0.06875 11.7219 0.20625 12.375H8.25V20.4188C8.90312 20.5563 9.59063 20.625 10.3125 20.625C11.0344 20.625 11.7219 20.5563 12.375 20.4188V12.375H20.4188C20.5563 11.7219 20.625 11.0344 20.625 10.3125C20.625 9.59063 20.5563 8.90312 20.4188 8.25Z" fill="#CF1B2B"/>
</svg>
